<?xml version="1.0" encoding="UTF-8"?><svg id="uuid-9684485c-0cf2-4ca5-a7ed-2dca49b191f4" xmlns="http://www.w3.org/2000/svg" viewBox="0 0 1200 400"><g id="uuid-7780bdcc-4277-49d1-b269-a0a5e85ca1c9"><rect x="1" y="1" width="1198" height="398" fill="#f4f4f4"/><path d="M1198,2v396H2V2h1196M1200,0H0v400h1200V0h0Z" fill="#353535"/><rect x="24.3" y="78.19" width="813.3" height="217.28" fill="#2f9aea"/><rect x="300.2" y="152.99" width="528.89" height="113.19" fill="#ffd93b"/><text transform="translate(428.01 238.78)" fill="#303030" font-family="STIXTwoText, &apos;STIX Two Text&apos;" font-size="118" font-variation-settings="&apos;wght&apos; 400" letter-spacing=".03em"><tspan x="0" y="0">abcdefg</tspan></text><text transform="translate(294.11 235.55)" fill="#ff9b3b" font-family="YuGo-Medium-83pv-RKSJ-H, YuGothic" font-size="105.45" font-weight="500" letter-spacing=".02em"><tspan x="0" y="0">子</tspan></text><text transform="translate(54.31 231.66)" fill="#2f80ea" font-family="YuGo-Medium-83pv-RKSJ-H, YuGothic" font-size="169.8" font-weight="500" letter-spacing=".03em"><tspan x="0" y="0">親</tspan></text><line x1="24.3" y1="78.68" x2="661.41" y2="78.68" fill="none" stroke="#3d3d3d" stroke-miterlimit="10"/><line x1="24.3" y1="295.96" x2="879.3" y2="295.96" fill="none" stroke="#fc172d" stroke-miterlimit="10" stroke-width="2"/><line x1="24.3" y1="78.68" x2="879.3" y2="78.68" fill="none" stroke="#fc172d" stroke-miterlimit="10" stroke-width="2"/><line x1="24.3" y1="240.59" x2="879.3" y2="240.59" fill="none" stroke="#fc172d" stroke-miterlimit="10" stroke-width="2"/><line x1="24.3" y1="186.83" x2="879.3" y2="186.83" fill="none" stroke="#fc172d" stroke-miterlimit="10" stroke-width="2"/><line x1="24.3" y1="153.36" x2="879.3" y2="153.36" fill="none" stroke="#fc172d" stroke-miterlimit="10" stroke-width="2"/><line x1="24.3" y1="266.18" x2="879.3" y2="266.18" fill="none" stroke="#fc172d" stroke-miterlimit="10" stroke-width="2"/><text transform="translate(893.38 87.31)" fill="#fc172d" font-family="RoundedMplus1c-Bold, &apos;Rounded Mplus 1c Bold&apos;" font-size="28" font-weight="700" letter-spacing="-.01em"><tspan x="0" y="0">top</tspan></text><text transform="translate(893.38 161.68)" fill="#fc172d" font-family="RoundedMplus1c-Bold, &apos;Rounded Mplus 1c Bold&apos;" font-size="28" font-weight="700" letter-spacing="-.01em"><tspan x="0" y="0">text-top</tspan></text><text transform="translate(893.38 198)" fill="#fc172d" font-family="RoundedMplus1c-Bold, &apos;Rounded Mplus 1c Bold&apos;" font-size="28" font-weight="700" letter-spacing="-.01em"><tspan x="0" y="0">middle</tspan></text><text transform="translate(893.38 248.65)" fill="#fc172d" font-family="RoundedMplus1c-Bold, &apos;Rounded Mplus 1c Bold&apos;" font-size="28" font-weight="700"><tspan x="0" y="0" letter-spacing="-.01em">baseline（初期値</tspan><tspan x="222.07" y="0" letter-spacing="-.51em">）</tspan></text><text transform="translate(893.38 281.79)" fill="#fc172d" font-family="RoundedMplus1c-Bold, &apos;Rounded Mplus 1c Bold&apos;" font-size="28" font-weight="700" letter-spacing="-.01em"><tspan x="0" y="0">text-bottom</tspan></text><text transform="translate(893.38 315.39)" fill="#fc172d" font-family="RoundedMplus1c-Bold, &apos;Rounded Mplus 1c Bold&apos;" font-size="28" font-weight="700" letter-spacing="-.01em"><tspan x="0" y="0">bottom</tspan></text><polygon points="956.55 67.9 958.91 75.16 966.55 75.16 960.37 79.65 962.73 86.92 956.55 82.43 950.37 86.92 952.73 79.65 946.55 75.16 954.19 75.16 956.55 67.9" fill="#fc172d"/><polygon points="1147.85 227.08 1150.21 234.34 1157.85 234.34 1151.67 238.83 1154.03 246.1 1147.85 241.61 1141.67 246.1 1144.03 238.83 1137.85 234.34 1145.49 234.34 1147.85 227.08" fill="#fc172d"/><polygon points="1009.9 296.79 1012.26 304.06 1019.9 304.06 1013.72 308.55 1016.08 315.81 1009.9 311.32 1003.72 315.81 1006.08 308.55 999.9 304.06 1007.54 304.06 1009.9 296.79" fill="#fc172d"/></g></svg>